<svg xmlns="http://www.w3.org/2000/svg" viewBox="0 0 240 240"><path d="M 240 120L 239.83588737172784 164.25168584705037L 239.34264430256462 178.31059445571958L 238.5175048936711 188.42133992495957L 237.35568607511226 196.51980903462993L 235.8501077333354 203.3182232476458L 233.99095676547404 209.167137935045L 231.7650400458852 214.2670055598816L 229.1548359277428 218.7435567441446L 226.13709441306725 222.6807304776413L 222.6807304776413 226.13709441306725L 218.7435567441446 229.1548359277428L 214.2670055598816 231.7650400458852L 209.16713793504502 233.99095676547404L 203.3182232476458 235.8501077333354L 196.51980903462996 237.35568607511226L 188.4213399249596 238.5175048936711L 178.31059445571958 239.34264430256462L 164.2516858470504 239.83588737172784L 120.00003926210574 240L 119.99996073789426 240L 75.74831415294962 239.83588737172784L 61.68940554428041 239.34264430256462L 51.5786600750404 238.5175048936711L 43.48019096537004 237.35568607511226L 36.68177675235421 235.8501077333354L 30.83286206495498 233.99095676547404L 25.732994440118404 231.7650400458852L 21.256443255855388 229.1548359277428L 17.319269522358695 226.13709441306725L 13.862905586932754 222.6807304776413L 10.845164072257205 218.7435567441446L 8.234959954114785 214.2670055598816L 6.009043234525947 209.167137935045L 4.149892266664608 203.3182232476458L 2.644313924887726 196.51980903462993L 1.482495106328912 188.42133992495957L 0.6573556974353636 178.31059445571958L 0.16411262827215012 164.25168584705037L 0 120L 0 120L 0.16411262827215012 75.74831415294963L 0.6573556974353636 61.689405544280426L 1.482495106328912 51.57866007504042L 2.644313924887726 43.480190965370056L 4.149892266664608 36.68177675235421L 6.009043234525947 30.83286206495501L 8.234959954114785 25.732994440118404L 10.845164072257205 21.256443255855388L 13.862905586932754 17.319269522358695L 17.319269522358695 13.862905586932754L 21.256443255855388 10.845164072257205L 25.732994440118404 8.234959954114785L 30.83286206495498 6.0090432345259615L 36.68177675235421 4.149892266664608L 43.48019096537004 2.644313924887726L 51.5786600750404 1.482495106328912L 61.68940554428041 0.6573556974353636L 75.74831415294962 0.16411262827215012L 119.99996073789426 0L 120.00003926210574 0L 164.2516858470504 0.16411262827215012L 178.31059445571958 0.6573556974353636L 188.4213399249596 1.482495106328912L 196.51980903462996 2.644313924887726L 203.3182232476458 4.149892266664608L 209.16713793504502 6.0090432345259615L 214.2670055598816 8.234959954114785L 218.7435567441446 10.845164072257205L 222.6807304776413 13.862905586932754L 226.13709441306725 17.319269522358695L 229.1548359277428 21.256443255855388L 231.7650400458852 25.732994440118404L 233.99095676547404 30.83286206495501L 235.8501077333354 36.68177675235421L 237.35568607511226 43.480190965370056L 238.5175048936711 51.57866007504042L 239.34264430256462 61.689405544280426L 239.83588737172784 75.74831415294963L 240 120" fill="#ff8243" /><path d="M 34.1748046875 168.740234375L 34.1748046875 168.740234375L 18.3154296875 168.740234375Q 17.7685546875,168.740234375 17.7685546875,168.056640625L 17.7685546875 168.056640625L 18.0419921875 71.875Q 18.0419921875,71.328125 18.5888671875,71.328125L 18.5888671875 71.328125L 46.8896484375 71.328125Q 54.4775390625,71.328125 60.8349609375,75.01953125L 60.8349609375 75.01953125Q 67.1923828125,78.7109375 70.986328125,84.931640625Q 74.7802734375,91.15234375 74.7802734375,99.013671875L 74.7802734375 99.013671875Q 74.7802734375,104.140625 73.2080078125,108.310546875L 73.2080078125 108.310546875Q 71.6357421875,112.48046875 69.55078125,115.3515625Q 67.4658203125,118.22265625 65.7568359375,119.58984375L 65.7568359375 119.58984375Q 73.3447265625,127.998046875 73.3447265625,139.345703125L 73.3447265625 139.345703125L 73.4814453125 168.056640625Q 73.4814453125,168.740234375 72.7978515625,168.740234375L 72.7978515625 168.740234375L 56.9384765625 168.740234375Q 56.3916015625,168.740234375 56.3916015625,168.330078125L 56.3916015625 168.330078125L 56.3916015625 139.345703125Q 56.3916015625,134.287109375 52.8369140625,130.595703125Q 49.2822265625,126.904296875 44.0869140625,126.904296875L 44.0869140625 126.904296875L 34.8583984375 126.904296875L 34.7216796875 168.056640625Q 34.7216796875,168.740234375 34.1748046875,168.740234375zM 46.8896484375 88.076171875L 46.8896484375 88.076171875L 34.8583984375 88.076171875L 34.8583984375 110.087890625L 46.8896484375 110.087890625Q 51.1962890625,110.087890625 54.580078125,106.875Q 57.9638671875,103.662109375 57.9638671875,99.013671875L 57.9638671875 99.013671875Q 57.9638671875,94.5703125 54.6826171875,91.3232421875Q 51.4013671875,88.076171875 46.8896484375,88.076171875zM 101.6455078125 168.740234375L 101.6455078125 168.740234375L 85.9228515625 168.740234375Q 85.2392578125,168.740234375 85.2392578125,168.056640625L 85.2392578125 168.056640625L 85.5126953125 71.875Q 85.5126953125,71.328125 86.0595703125,71.328125L 86.0595703125 71.328125L 130.9033203125 71.328125Q 131.5869140625,71.328125 131.5869140625,71.875L 131.5869140625 71.875L 131.5869140625 87.666015625Q 131.5869140625,88.212890625 131.0400390625,88.212890625L 131.0400390625 88.212890625L 102.3291015625 88.212890625L 102.3291015625 109.951171875L 131.0400390625 109.951171875Q 131.5869140625,109.951171875 131.5869140625,110.634765625L 131.5869140625 110.634765625L 131.7236328125 126.494140625Q 131.7236328125,127.041015625 131.0400390625,127.041015625L 131.0400390625 127.041015625L 102.3291015625 127.041015625L 102.3291015625 168.056640625Q 102.3291015625,168.740234375 101.6455078125,168.740234375zM 167.9541015625 170.107421875L 167.9541015625 170.107421875Q 160.5029296875,170.107421875 154.2138671875,166.279296875L 154.2138671875 166.279296875Q 147.9931640625,162.451171875 144.267578125,156.0595703125Q 140.5419921875,149.66796875 140.5419921875,142.01171875L 140.5419921875 142.01171875L 140.5419921875 135.5859375Q 140.5419921875,134.833984375 141.2255859375,134.833984375L 141.2255859375 134.833984375L 156.9482421875 134.833984375Q 157.4951171875,134.833984375 157.4951171875,135.5859375L 157.4951171875 135.5859375L 157.4951171875 142.01171875Q 157.4951171875,146.591796875 160.5712890625,149.9072265625Q 163.6474609375,153.22265625 167.9541015625,153.22265625L 167.9541015625 153.22265625Q 172.3291015625,153.22265625 175.4052734375,149.8388671875Q 178.4814453125,146.455078125 178.4814453125,142.01171875L 178.4814453125 142.01171875Q 178.4814453125,136.884765625 171.7822265625,133.056640625L 171.7822265625 133.056640625Q 170.6884765625,132.373046875 168.9453125,131.3818359375Q 167.2021484375,130.390625 164.8095703125,129.091796875L 164.8095703125 129.091796875Q 162.4169921875,127.79296875 160.1611328125,126.5283203125Q 157.9052734375,125.263671875 155.7861328125,124.1015625L 155.7861328125 124.1015625Q 148.1298828125,119.58984375 144.404296875,112.7880859375Q 140.6787109375,105.986328125 140.6787109375,97.509765625L 140.6787109375 97.509765625Q 140.6787109375,89.716796875 144.5068359375,83.427734375L 144.5068359375 83.427734375Q 148.3349609375,77.20703125 154.521484375,73.5498046875Q 160.7080078125,69.892578125 167.9541015625,69.892578125L 167.9541015625 69.892578125Q 175.4052734375,69.892578125 181.6259765625,73.583984375L 181.6259765625 73.583984375Q 187.8466796875,77.34375 191.572265625,83.564453125Q 195.2978515625,89.78515625 195.2978515625,97.509765625L 195.2978515625 97.509765625L 195.2978515625 108.994140625Q 195.2978515625,109.541015625 194.7509765625,109.541015625L 194.7509765625 109.541015625L 179.0283203125 109.541015625Q 178.4814453125,109.541015625 178.4814453125,108.994140625L 178.4814453125 108.994140625L 178.3447265625 97.509765625Q 178.3447265625,92.587890625 175.2685546875,89.51171875Q 172.1923828125,86.435546875 167.9541015625,86.435546875L 167.9541015625 86.435546875Q 163.6474609375,86.435546875 160.5712890625,89.716796875Q 157.4951171875,92.998046875 157.4951171875,97.509765625L 157.4951171875 97.509765625Q 157.4951171875,102.08984375 159.443359375,105.166015625Q 161.3916015625,108.2421875 166.5869140625,111.044921875L 166.5869140625 111.044921875Q 167.1337890625,111.318359375 169.1162109375,112.412109375Q 171.0986328125,113.505859375 173.525390625,114.8388671875Q 175.9521484375,116.171875 177.9345703125,117.2314453125Q 179.9169921875,118.291015625 180.3271484375,118.49609375L 180.3271484375 118.49609375Q 187.2998046875,122.392578125 191.3671875,128.06640625Q 195.4345703125,133.740234375 195.4345703125,142.01171875L 195.4345703125 142.01171875Q 195.4345703125,150.009765625 191.7431640625,156.3671875L 191.7431640625 156.3671875Q 187.9833984375,162.724609375 181.7626953125,166.416015625Q 175.5419921875,170.107421875 167.9541015625,170.107421875zM 221.6845703125 168.740234375L 221.6845703125 168.740234375L 205.8251953125 168.740234375Q 205.1416015625,168.740234375 205.1416015625,168.056640625L 205.1416015625 168.056640625L 205.2783203125 71.875Q 205.2783203125,71.328125 205.8251953125,71.328125L 205.8251953125 71.328125L 221.5478515625 71.328125Q 222.0947265625,71.328125 222.0947265625,71.875L 222.0947265625 71.875L 222.2314453125 168.056640625Q 222.2314453125,168.740234375 221.6845703125,168.740234375z" fill="#ffffff" /></svg>