<svg width="256" height="256" xmlns="http://www.w3.org/2000/svg" viewBox="0 0 256 256"><path d="m256 128-.1 42.35-.33 13.44-.53 9.7-.64 7.9-.96 6.61-1.07 5.87-1.38 5.12-1.6 4.58-1.82 4.16-2.02 3.74-2.24 3.41-2.56 3.1-2.78 2.77-3.09 2.56-3.41 2.24-3.74 2.02-4.16 1.82-4.58 1.6-5.12 1.38-5.87 1.07-6.61.96-7.9.64-9.7.53-13.44.32-42.24.11-42.46-.1-13.44-.33-9.7-.53-7.9-.64-6.61-.96-5.87-1.07-5.12-1.38-4.58-1.6-4.16-1.82-3.74-2.02-3.41-2.24-3.1-2.56-2.77-2.78-2.56-3.09-2.24-3.41-2.02-3.74-1.82-4.16-1.6-4.58-1.38-5.12L2.56 208l-.96-6.61-.64-7.9-.53-9.7-.32-13.44L0 128.1l.1-42.46.33-13.44.53-9.7.64-7.9.96-6.6 1.07-5.88L5 37.01l1.6-4.58 1.82-4.16 2.02-3.74 2.24-3.4 2.56-3.1 2.78-2.78 3.09-2.56 3.41-2.24 3.74-2.02 4.16-1.82L37 5.01l5.12-1.38L48 2.56l6.61-.96 7.9-.64 9.7-.53L85.65.1 127.9 0l42.46.1 13.44.32 9.7.53 7.9.64 6.61.96 5.87 1.07L218.99 5l4.58 1.6 4.16 1.82 3.74 2.02 3.41 2.24 3.1 2.56 2.77 2.78 2.56 3.1 2.24 3.4 2.02 3.74 1.82 4.16 1.6 4.58 1.38 5.12 1.07 5.87.96 6.61.64 7.9.53 9.7.32 13.44.11 42.14z" fill="#ff8243"/><path d="M149.54 150.27v-6.88a1.28 1.28 0 0 1 .04-.31q.12-.5.7-.5h16.84a.6.6 0 0 1 .28.06q.24.13.3.53a1.77 1.77 0 0 1 0 .22v6.88q0 4.9 3.3 8.46a11.33 11.33 0 0 0 3.37 2.55 10.3 10.3 0 0 0 4.54 1q4.7 0 7.99-3.62 3.3-3.63 3.3-8.39 0-5.5-7.18-9.6a52.23 52.23 0 0 0-.63-.38q-1.01-.61-2.41-1.4a195.1 195.1 0 0 0-1.5-.85l-1.4-.77a354.41 354.41 0 0 0-1.54-.84q-2.56-1.4-4.98-2.75a581.43 581.43 0 0 0-4.11-2.29 524.5 524.5 0 0 0-.57-.3 36.02 36.02 0 0 1-7.13-5.43 29.08 29.08 0 0 1-5.07-6.7 32.72 32.72 0 0 1-3.9-13.58 39.52 39.52 0 0 1-.1-2.79 29.17 29.17 0 0 1 2.12-11.14 27.82 27.82 0 0 1 2-3.95q4.1-6.66 10.72-10.58 6.63-3.92 14.4-3.92a28.18 28.18 0 0 1 14.64 3.96 30.82 30.82 0 0 1 10.66 10.69 28.3 28.3 0 0 1 3.97 13.91 33.71 33.71 0 0 1 .02 1.03v12.3a.84.84 0 0 1-.03.24q-.07.26-.34.33a.86.86 0 0 1-.22.02h-16.84a.84.84 0 0 1-.23-.03q-.26-.07-.33-.34a.86.86 0 0 1-.03-.21l-.14-12.3a13.74 13.74 0 0 0-.55-3.97 10.8 10.8 0 0 0-2.75-4.6 11.15 11.15 0 0 0-3.98-2.63 10.89 10.89 0 0 0-3.86-.67 10.4 10.4 0 0 0-7.6 3.19 13.47 13.47 0 0 0-.3.32q-3.3 3.52-3.3 8.35a19.1 19.1 0 0 0 .33 3.66q.44 2.24 1.45 4.04a11.69 11.69 0 0 0 .3.5 12.54 12.54 0 0 0 1.95 2.33q2.07 1.98 5.49 3.85a41.32 41.32 0 0 0 .22.12 17.02 17.02 0 0 1 .27.14q.69.36 2.31 1.26a428.94 428.94 0 0 1 .13.07 2503.22 2503.22 0 0 0 2.24 1.23 3382.96 3382.96 0 0 0 2.48 1.37 551.97 551.97 0 0 0 2.48 1.35 404.06 404.06 0 0 0 2.25 1.21 686.84 686.84 0 0 0 .73.4l1.67.87a15.27 15.27 0 0 0 .16.09 39.53 39.53 0 0 1 7.06 4.97 32.22 32.22 0 0 1 4.77 5.28 22.9 22.9 0 0 1 3.89 9.43 31.14 31.14 0 0 1 .47 5.51 31.82 31.82 0 0 1-1.47 9.8 28.42 28.42 0 0 1-2.49 5.58q-4.03 6.81-10.7 10.77a28.45 28.45 0 0 1-14.79 3.95 27.79 27.79 0 0 1-14.72-4.1 30.95 30.95 0 0 1-10.66-10.95q-3.99-6.84-3.99-15.05zM35.58 178.91h-17a.66.66 0 0 1-.25-.05q-.29-.12-.32-.55a1.58 1.58 0 0 1-.01-.13l.3-103.05a.84.84 0 0 1 .02-.24q.08-.26.34-.33a.86.86 0 0 1 .22-.02H49.2a29.23 29.23 0 0 1 14.94 3.95 30.43 30.43 0 0 1 10.88 10.62 27.98 27.98 0 0 1 4.02 13.4 33.84 33.84 0 0 1 .04 1.7 30.96 30.96 0 0 1-.51 5.77 25.09 25.09 0 0 1-1.17 4.18q-1.69 4.47-3.92 7.55a38.27 38.27 0 0 1-1.36 1.76q-1.45 1.77-2.7 2.78a30.57 30.57 0 0 1 8.13 21.17l.14 30.76a1.05 1.05 0 0 1-.03.29q-.13.44-.7.44h-17a1.15 1.15 0 0 1-.2-.02q-.36-.06-.38-.38a.62.62 0 0 1 0-.04v-31.05q0-5.42-3.8-9.38-3.82-3.95-9.38-3.95H36.3l-.15 44.09a1.34 1.34 0 0 1-.02.26q-.08.42-.46.46a.82.82 0 0 1-.1 0zm72.29 0H91.02a1.05 1.05 0 0 1-.29-.04q-.44-.12-.44-.7l.3-103.05a.84.84 0 0 1 .02-.23q.08-.26.34-.33a.86.86 0 0 1 .22-.02h48.05a1.34 1.34 0 0 1 .26.02q.42.09.46.46a.82.82 0 0 1 0 .1v16.92a.84.84 0 0 1-.02.24q-.07.26-.34.32a.86.86 0 0 1-.22.03H108.6v23.3h30.76a.66.66 0 0 1 .26.04q.28.12.32.55a1.58 1.58 0 0 1 0 .13l.16 17a.66.66 0 0 1-.05.25q-.12.29-.55.33a1.58 1.58 0 0 1-.14 0H108.6v43.95a1.05 1.05 0 0 1-.04.29q-.12.44-.7.44zm128.61 0h-17a1.05 1.05 0 0 1-.28-.04q-.44-.12-.44-.7l.14-103.05a.84.84 0 0 1 .03-.23q.08-.26.34-.33a.86.86 0 0 1 .22-.02h16.84a.84.84 0 0 1 .24.03q.26.07.33.34a.86.86 0 0 1 .02.21l.15 103.06a1.34 1.34 0 0 1-.03.26q-.08.42-.46.46a.82.82 0 0 1-.1 0zM49.2 92.48H36.31v23.59h12.9a11.45 11.45 0 0 0 7.54-2.83 15.04 15.04 0 0 0 .7-.61 11.14 11.14 0 0 0 3.61-8.08 13.46 13.46 0 0 0 0-.35 11.18 11.18 0 0 0-3.4-8.12 14.35 14.35 0 0 0-.1-.12 11.88 11.88 0 0 0-4.38-2.81 11.73 11.73 0 0 0-3.98-.67z" fill="#fff" stroke-width="0"/></svg>